<?xml version="1.0" encoding="utf-8" standalone="no"?>
<!DOCTYPE svg PUBLIC "-//W3C//DTD SVG 1.1//EN"
  "http://www.w3.org/Graphics/SVG/1.1/DTD/svg11.dtd">
<svg xmlns:xlink="http://www.w3.org/1999/xlink" width="720pt" height="432pt" viewBox="0 0 720 432" xmlns="http://www.w3.org/2000/svg" version="1.1">
 <metadata>
  <rdf:RDF xmlns:dc="http://purl.org/dc/elements/1.1/" xmlns:cc="http://creativecommons.org/ns#" xmlns:rdf="http://www.w3.org/1999/02/22-rdf-syntax-ns#">
   <cc:Work>
    <dc:type rdf:resource="http://purl.org/dc/dcmitype/StillImage"/>
    <dc:date>2025-06-07T14:51:43.811656</dc:date>
    <dc:format>image/svg+xml</dc:format>
    <dc:creator>
     <cc:Agent>
      <dc:title>Matplotlib v3.9.3, https://matplotlib.org/</dc:title>
     </cc:Agent>
    </dc:creator>
   </cc:Work>
  </rdf:RDF>
 </metadata>
 <defs>
  <style type="text/css">*{stroke-linejoin: round; stroke-linecap: butt}</style>
 </defs>
 <g id="figure_1">
  <g id="patch_1">
   <path d="M 0 432 
L 720 432 
L 720 0 
L 0 0 
z
" style="fill: #ffffff"/>
  </g>
  <g id="axes_1">
   <g id="patch_2">
    <path d="M 65.55 372.3 
L 700.56 372.3 
L 700.56 20.159711 
L 65.55 20.159711 
z
" style="fill: #ffffff"/>
   </g>
   <g id="matplotlib.axis_1">
    <g id="xtick_1">
     <g id="text_1">
      <text style="fill: #262626; font: 12px 'Arial'; text-anchor: middle" x="133.14938" y="393.389375" transform="rotate(-0 133.14938 393.389375)">0.2</text>
     </g>
    </g>
    <g id="xtick_2">
     <g id="text_2">
      <text style="fill: #262626; font: 12px 'Arial'; text-anchor: middle" x="267.786012" y="393.389375" transform="rotate(-0 267.786012 393.389375)">0.4</text>
     </g>
    </g>
    <g id="xtick_3">
     <g id="text_3">
      <text style="fill: #262626; font: 12px 'Arial'; text-anchor: middle" x="402.422644" y="393.389375" transform="rotate(-0 402.422644 393.389375)">0.6</text>
     </g>
    </g>
    <g id="xtick_4">
     <g id="text_4">
      <text style="fill: #262626; font: 12px 'Arial'; text-anchor: middle" x="537.059277" y="393.389375" transform="rotate(-0 537.059277 393.389375)">0.8</text>
     </g>
    </g>
    <g id="xtick_5">
     <g id="text_5">
      <text style="fill: #262626; font: 12px 'Arial'; text-anchor: middle" x="671.695909" y="393.389375" transform="rotate(-0 671.695909 393.389375)">1.0</text>
     </g>
    </g>
    <g id="text_6">
     <text style="fill: #262626; font: 700 14px 'Arial'; text-anchor: middle" x="383.055" y="409.795312" transform="rotate(-0 383.055 409.795312)">Pearson Correlation</text>
    </g>
   </g>
   <g id="matplotlib.axis_2">
    <g id="ytick_1">
     <g id="text_7">
      <text style="fill: #262626; font: 12px 'Arial'; text-anchor: end" x="53.05" y="376.594687" transform="rotate(-0 53.05 376.594687)">0.0</text>
     </g>
    </g>
    <g id="ytick_2">
     <g id="text_8">
      <text style="fill: #262626; font: 12px 'Arial'; text-anchor: end" x="53.05" y="326.83341" transform="rotate(-0 53.05 326.83341)">0.5</text>
     </g>
    </g>
    <g id="ytick_3">
     <g id="text_9">
      <text style="fill: #262626; font: 12px 'Arial'; text-anchor: end" x="53.05" y="277.072133" transform="rotate(-0 53.05 277.072133)">1.0</text>
     </g>
    </g>
    <g id="ytick_4">
     <g id="text_10">
      <text style="fill: #262626; font: 12px 'Arial'; text-anchor: end" x="53.05" y="227.310856" transform="rotate(-0 53.05 227.310856)">1.5</text>
     </g>
    </g>
    <g id="ytick_5">
     <g id="text_11">
      <text style="fill: #262626; font: 12px 'Arial'; text-anchor: end" x="53.05" y="177.549578" transform="rotate(-0 53.05 177.549578)">2.0</text>
     </g>
    </g>
    <g id="ytick_6">
     <g id="text_12">
      <text style="fill: #262626; font: 12px 'Arial'; text-anchor: end" x="53.05" y="127.788301" transform="rotate(-0 53.05 127.788301)">2.5</text>
     </g>
    </g>
    <g id="ytick_7">
     <g id="text_13">
      <text style="fill: #262626; font: 12px 'Arial'; text-anchor: end" x="53.05" y="78.027024" transform="rotate(-0 53.05 78.027024)">3.0</text>
     </g>
    </g>
    <g id="ytick_8">
     <g id="text_14">
      <text style="fill: #262626; font: 12px 'Arial'; text-anchor: end" x="53.05" y="28.265747" transform="rotate(-0 53.05 28.265747)">3.5</text>
     </g>
    </g>
    <g id="text_15">
     <text style="fill: #262626; font: 700 14px 'Arial'; text-anchor: middle" x="29.423437" y="196.229855" transform="rotate(-90 29.423437 196.229855)">Density</text>
    </g>
   </g>
   <g id="patch_3">
    <path d="M 124.794417 372.3 
L 135.718579 372.3 
L 135.718579 370.936727 
L 124.794417 370.936727 
z
" clip-path="url(#pc4812d18ff)" style="fill: #f9bebb; fill-opacity: 0.7; stroke: #000000; stroke-width: 0.5; stroke-linejoin: miter"/>
   </g>
   <g id="patch_4">
    <path d="M 135.718579 372.3 
L 146.642742 372.3 
L 146.642742 369.573454 
L 135.718579 369.573454 
z
" clip-path="url(#pc4812d18ff)" style="fill: #f9bebb; fill-opacity: 0.7; stroke: #000000; stroke-width: 0.5; stroke-linejoin: miter"/>
   </g>
   <g id="patch_5">
    <path d="M 146.642742 372.3 
L 157.566904 372.3 
L 157.566904 368.664606 
L 146.642742 368.664606 
z
" clip-path="url(#pc4812d18ff)" style="fill: #f9bebb; fill-opacity: 0.7; stroke: #000000; stroke-width: 0.5; stroke-linejoin: miter"/>
   </g>
   <g id="patch_6">
    <path d="M 157.566904 372.3 
L 168.491067 372.3 
L 168.491067 361.848241 
L 157.566904 361.848241 
z
" clip-path="url(#pc4812d18ff)" style="fill: #f9bebb; fill-opacity: 0.7; stroke: #000000; stroke-width: 0.5; stroke-linejoin: miter"/>
   </g>
   <g id="patch_7">
    <path d="M 168.491067 372.3 
L 179.415229 372.3 
L 179.415229 363.211514 
L 168.491067 363.211514 
z
" clip-path="url(#pc4812d18ff)" style="fill: #f9bebb; fill-opacity: 0.7; stroke: #000000; stroke-width: 0.5; stroke-linejoin: miter"/>
   </g>
   <g id="patch_8">
    <path d="M 179.415229 372.3 
L 190.339392 372.3 
L 190.339392 341.399148 
L 179.415229 341.399148 
z
" clip-path="url(#pc4812d18ff)" style="fill: #f9bebb; fill-opacity: 0.7; stroke: #000000; stroke-width: 0.5; stroke-linejoin: miter"/>
   </g>
   <g id="patch_9">
    <path d="M 190.339392 372.3 
L 201.263554 372.3 
L 201.263554 328.220844 
L 190.339392 328.220844 
z
" clip-path="url(#pc4812d18ff)" style="fill: #f9bebb; fill-opacity: 0.7; stroke: #000000; stroke-width: 0.5; stroke-linejoin: miter"/>
   </g>
   <g id="patch_10">
    <path d="M 201.263554 372.3 
L 212.187717 372.3 
L 212.187717 297.319992 
L 201.263554 297.319992 
z
" clip-path="url(#pc4812d18ff)" style="fill: #f9bebb; fill-opacity: 0.7; stroke: #000000; stroke-width: 0.5; stroke-linejoin: miter"/>
   </g>
   <g id="patch_11">
    <path d="M 212.187717 372.3 
L 223.111879 372.3 
L 223.111879 210.979376 
L 212.187717 210.979376 
z
" clip-path="url(#pc4812d18ff)" style="fill: #f9bebb; fill-opacity: 0.7; stroke: #000000; stroke-width: 0.5; stroke-linejoin: miter"/>
   </g>
   <g id="patch_12">
    <path d="M 223.111879 372.3 
L 234.036041 372.3 
L 234.036041 212.342649 
L 223.111879 212.342649 
z
" clip-path="url(#pc4812d18ff)" style="fill: #f9bebb; fill-opacity: 0.7; stroke: #000000; stroke-width: 0.5; stroke-linejoin: miter"/>
   </g>
   <g id="patch_13">
    <path d="M 234.036041 372.3 
L 244.960204 372.3 
L 244.960204 202.799739 
L 234.036041 202.799739 
z
" clip-path="url(#pc4812d18ff)" style="fill: #f9bebb; fill-opacity: 0.7; stroke: #000000; stroke-width: 0.5; stroke-linejoin: miter"/>
   </g>
   <g id="patch_14">
    <path d="M 244.960204 372.3 
L 255.884366 372.3 
L 255.884366 170.535614 
L 244.960204 170.535614 
z
" clip-path="url(#pc4812d18ff)" style="fill: #f9bebb; fill-opacity: 0.7; stroke: #000000; stroke-width: 0.5; stroke-linejoin: miter"/>
   </g>
   <g id="patch_15">
    <path d="M 255.884366 372.3 
L 266.808529 372.3 
L 266.808529 183.259494 
L 255.884366 183.259494 
z
" clip-path="url(#pc4812d18ff)" style="fill: #f9bebb; fill-opacity: 0.7; stroke: #000000; stroke-width: 0.5; stroke-linejoin: miter"/>
   </g>
   <g id="patch_16">
    <path d="M 266.808529 372.3 
L 277.732691 372.3 
L 277.732691 189.621434 
L 266.808529 189.621434 
z
" clip-path="url(#pc4812d18ff)" style="fill: #f9bebb; fill-opacity: 0.7; stroke: #000000; stroke-width: 0.5; stroke-linejoin: miter"/>
   </g>
   <g id="patch_17">
    <path d="M 277.732691 372.3 
L 288.656854 372.3 
L 288.656854 176.44313 
L 277.732691 176.44313 
z
" clip-path="url(#pc4812d18ff)" style="fill: #f9bebb; fill-opacity: 0.7; stroke: #000000; stroke-width: 0.5; stroke-linejoin: miter"/>
   </g>
   <g id="patch_18">
    <path d="M 288.656854 372.3 
L 299.581016 372.3 
L 299.581016 175.534281 
L 288.656854 175.534281 
z
" clip-path="url(#pc4812d18ff)" style="fill: #f9bebb; fill-opacity: 0.7; stroke: #000000; stroke-width: 0.5; stroke-linejoin: miter"/>
   </g>
   <g id="patch_19">
    <path d="M 299.581016 372.3 
L 310.505179 372.3 
L 310.505179 116.004699 
L 299.581016 116.004699 
z
" clip-path="url(#pc4812d18ff)" style="fill: #f9bebb; fill-opacity: 0.7; stroke: #000000; stroke-width: 0.5; stroke-linejoin: miter"/>
   </g>
   <g id="patch_20">
    <path d="M 310.505179 372.3 
L 321.429341 372.3 
L 321.429341 153.267491 
L 310.505179 153.267491 
z
" clip-path="url(#pc4812d18ff)" style="fill: #f9bebb; fill-opacity: 0.7; stroke: #000000; stroke-width: 0.5; stroke-linejoin: miter"/>
   </g>
   <g id="patch_21">
    <path d="M 321.429341 372.3 
L 332.353503 372.3 
L 332.353503 133.272822 
L 321.429341 133.272822 
z
" clip-path="url(#pc4812d18ff)" style="fill: #f9bebb; fill-opacity: 0.7; stroke: #000000; stroke-width: 0.5; stroke-linejoin: miter"/>
   </g>
   <g id="patch_22">
    <path d="M 332.353503 372.3 
L 343.277666 372.3 
L 343.277666 150.540945 
L 332.353503 150.540945 
z
" clip-path="url(#pc4812d18ff)" style="fill: #f9bebb; fill-opacity: 0.7; stroke: #000000; stroke-width: 0.5; stroke-linejoin: miter"/>
   </g>
   <g id="patch_23">
    <path d="M 343.277666 372.3 
L 354.201828 372.3 
L 354.201828 147.814399 
L 343.277666 147.814399 
z
" clip-path="url(#pc4812d18ff)" style="fill: #f9bebb; fill-opacity: 0.7; stroke: #000000; stroke-width: 0.5; stroke-linejoin: miter"/>
   </g>
   <g id="patch_24">
    <path d="M 354.201828 372.3 
L 365.125991 372.3 
L 365.125991 153.721915 
L 354.201828 153.721915 
z
" clip-path="url(#pc4812d18ff)" style="fill: #f9bebb; fill-opacity: 0.7; stroke: #000000; stroke-width: 0.5; stroke-linejoin: miter"/>
   </g>
   <g id="patch_25">
    <path d="M 365.125991 372.3 
L 376.050153 372.3 
L 376.050153 144.179005 
L 365.125991 144.179005 
z
" clip-path="url(#pc4812d18ff)" style="fill: #f9bebb; fill-opacity: 0.7; stroke: #000000; stroke-width: 0.5; stroke-linejoin: miter"/>
   </g>
   <g id="patch_26">
    <path d="M 376.050153 372.3 
L 386.974316 372.3 
L 386.974316 146.905551 
L 376.050153 146.905551 
z
" clip-path="url(#pc4812d18ff)" style="fill: #f9bebb; fill-opacity: 0.7; stroke: #000000; stroke-width: 0.5; stroke-linejoin: miter"/>
   </g>
   <g id="patch_27">
    <path d="M 386.974316 372.3 
L 397.898478 372.3 
L 397.898478 108.73391 
L 386.974316 108.73391 
z
" clip-path="url(#pc4812d18ff)" style="fill: #f9bebb; fill-opacity: 0.7; stroke: #000000; stroke-width: 0.5; stroke-linejoin: miter"/>
   </g>
   <g id="patch_28">
    <path d="M 397.898478 372.3 
L 408.822641 372.3 
L 408.822641 77.378634 
L 397.898478 77.378634 
z
" clip-path="url(#pc4812d18ff)" style="fill: #f9bebb; fill-opacity: 0.7; stroke: #000000; stroke-width: 0.5; stroke-linejoin: miter"/>
   </g>
   <g id="patch_29">
    <path d="M 408.822641 372.3 
L 419.746803 372.3 
L 419.746803 43.296812 
L 408.822641 43.296812 
z
" clip-path="url(#pc4812d18ff)" style="fill: #f9bebb; fill-opacity: 0.7; stroke: #000000; stroke-width: 0.5; stroke-linejoin: miter"/>
   </g>
   <g id="patch_30">
    <path d="M 419.746803 372.3 
L 430.670966 372.3 
L 430.670966 90.102514 
L 419.746803 90.102514 
z
" clip-path="url(#pc4812d18ff)" style="fill: #f9bebb; fill-opacity: 0.7; stroke: #000000; stroke-width: 0.5; stroke-linejoin: miter"/>
   </g>
   <g id="patch_31">
    <path d="M 430.670966 372.3 
L 441.595128 372.3 
L 441.595128 138.271489 
L 430.670966 138.271489 
z
" clip-path="url(#pc4812d18ff)" style="fill: #f9bebb; fill-opacity: 0.7; stroke: #000000; stroke-width: 0.5; stroke-linejoin: miter"/>
   </g>
   <g id="patch_32">
    <path d="M 441.595128 372.3 
L 452.51929 372.3 
L 452.51929 194.165677 
L 441.595128 194.165677 
z
" clip-path="url(#pc4812d18ff)" style="fill: #f9bebb; fill-opacity: 0.7; stroke: #000000; stroke-width: 0.5; stroke-linejoin: miter"/>
   </g>
   <g id="patch_33">
    <path d="M 452.51929 372.3 
L 463.443453 372.3 
L 463.443453 261.420473 
L 452.51929 261.420473 
z
" clip-path="url(#pc4812d18ff)" style="fill: #f9bebb; fill-opacity: 0.7; stroke: #000000; stroke-width: 0.5; stroke-linejoin: miter"/>
   </g>
   <g id="patch_34">
    <path d="M 463.443453 372.3 
L 474.367615 372.3 
L 474.367615 293.230173 
L 463.443453 293.230173 
z
" clip-path="url(#pc4812d18ff)" style="fill: #f9bebb; fill-opacity: 0.7; stroke: #000000; stroke-width: 0.5; stroke-linejoin: miter"/>
   </g>
   <g id="patch_35">
    <path d="M 474.367615 372.3 
L 485.291778 372.3 
L 485.291778 305.499629 
L 474.367615 305.499629 
z
" clip-path="url(#pc4812d18ff)" style="fill: #f9bebb; fill-opacity: 0.7; stroke: #000000; stroke-width: 0.5; stroke-linejoin: miter"/>
   </g>
   <g id="patch_36">
    <path d="M 485.291778 372.3 
L 496.21594 372.3 
L 496.21594 320.495631 
L 485.291778 320.495631 
z
" clip-path="url(#pc4812d18ff)" style="fill: #f9bebb; fill-opacity: 0.7; stroke: #000000; stroke-width: 0.5; stroke-linejoin: miter"/>
   </g>
   <g id="patch_37">
    <path d="M 496.21594 372.3 
L 507.140103 372.3 
L 507.140103 323.222176 
L 496.21594 323.222176 
z
" clip-path="url(#pc4812d18ff)" style="fill: #f9bebb; fill-opacity: 0.7; stroke: #000000; stroke-width: 0.5; stroke-linejoin: miter"/>
   </g>
   <g id="patch_38">
    <path d="M 507.140103 372.3 
L 518.064265 372.3 
L 518.064265 321.404479 
L 507.140103 321.404479 
z
" clip-path="url(#pc4812d18ff)" style="fill: #f9bebb; fill-opacity: 0.7; stroke: #000000; stroke-width: 0.5; stroke-linejoin: miter"/>
   </g>
   <g id="patch_39">
    <path d="M 518.064265 372.3 
L 528.988428 372.3 
L 528.988428 341.399148 
L 518.064265 341.399148 
z
" clip-path="url(#pc4812d18ff)" style="fill: #f9bebb; fill-opacity: 0.7; stroke: #000000; stroke-width: 0.5; stroke-linejoin: miter"/>
   </g>
   <g id="patch_40">
    <path d="M 528.988428 372.3 
L 539.91259 372.3 
L 539.91259 339.127027 
L 528.988428 339.127027 
z
" clip-path="url(#pc4812d18ff)" style="fill: #f9bebb; fill-opacity: 0.7; stroke: #000000; stroke-width: 0.5; stroke-linejoin: miter"/>
   </g>
   <g id="patch_41">
    <path d="M 539.91259 372.3 
L 550.836753 372.3 
L 550.836753 330.947389 
L 539.91259 330.947389 
z
" clip-path="url(#pc4812d18ff)" style="fill: #f9bebb; fill-opacity: 0.7; stroke: #000000; stroke-width: 0.5; stroke-linejoin: miter"/>
   </g>
   <g id="patch_42">
    <path d="M 550.836753 372.3 
L 561.760915 372.3 
L 561.760915 319.132358 
L 550.836753 319.132358 
z
" clip-path="url(#pc4812d18ff)" style="fill: #f9bebb; fill-opacity: 0.7; stroke: #000000; stroke-width: 0.5; stroke-linejoin: miter"/>
   </g>
   <g id="patch_43">
    <path d="M 561.760915 372.3 
L 572.685077 372.3 
L 572.685077 327.311995 
L 561.760915 327.311995 
z
" clip-path="url(#pc4812d18ff)" style="fill: #f9bebb; fill-opacity: 0.7; stroke: #000000; stroke-width: 0.5; stroke-linejoin: miter"/>
   </g>
   <g id="patch_44">
    <path d="M 572.685077 372.3 
L 583.60924 372.3 
L 583.60924 325.494298 
L 572.685077 325.494298 
z
" clip-path="url(#pc4812d18ff)" style="fill: #f9bebb; fill-opacity: 0.7; stroke: #000000; stroke-width: 0.5; stroke-linejoin: miter"/>
   </g>
   <g id="patch_45">
    <path d="M 583.60924 372.3 
L 594.533402 372.3 
L 594.533402 319.586782 
L 583.60924 319.586782 
z
" clip-path="url(#pc4812d18ff)" style="fill: #f9bebb; fill-opacity: 0.7; stroke: #000000; stroke-width: 0.5; stroke-linejoin: miter"/>
   </g>
   <g id="patch_46">
    <path d="M 594.533402 372.3 
L 605.457565 372.3 
L 605.457565 330.492965 
L 594.533402 330.492965 
z
" clip-path="url(#pc4812d18ff)" style="fill: #f9bebb; fill-opacity: 0.7; stroke: #000000; stroke-width: 0.5; stroke-linejoin: miter"/>
   </g>
   <g id="patch_47">
    <path d="M 605.457565 372.3 
L 616.381727 372.3 
L 616.381727 338.672602 
L 605.457565 338.672602 
z
" clip-path="url(#pc4812d18ff)" style="fill: #f9bebb; fill-opacity: 0.7; stroke: #000000; stroke-width: 0.5; stroke-linejoin: miter"/>
   </g>
   <g id="patch_48">
    <path d="M 616.381727 372.3 
L 627.30589 372.3 
L 627.30589 350.03321 
L 616.381727 350.03321 
z
" clip-path="url(#pc4812d18ff)" style="fill: #f9bebb; fill-opacity: 0.7; stroke: #000000; stroke-width: 0.5; stroke-linejoin: miter"/>
   </g>
   <g id="patch_49">
    <path d="M 627.30589 372.3 
L 638.230052 372.3 
L 638.230052 341.399148 
L 627.30589 341.399148 
z
" clip-path="url(#pc4812d18ff)" style="fill: #f9bebb; fill-opacity: 0.7; stroke: #000000; stroke-width: 0.5; stroke-linejoin: miter"/>
   </g>
   <g id="patch_50">
    <path d="M 638.230052 372.3 
L 649.154215 372.3 
L 649.154215 327.766419 
L 638.230052 327.766419 
z
" clip-path="url(#pc4812d18ff)" style="fill: #f9bebb; fill-opacity: 0.7; stroke: #000000; stroke-width: 0.5; stroke-linejoin: miter"/>
   </g>
   <g id="patch_51">
    <path d="M 649.154215 372.3 
L 660.078377 372.3 
L 660.078377 327.766419 
L 649.154215 327.766419 
z
" clip-path="url(#pc4812d18ff)" style="fill: #f9bebb; fill-opacity: 0.7; stroke: #000000; stroke-width: 0.5; stroke-linejoin: miter"/>
   </g>
   <g id="patch_52">
    <path d="M 660.078377 372.3 
L 671.002539 372.3 
L 671.002539 217.341316 
L 660.078377 217.341316 
z
" clip-path="url(#pc4812d18ff)" style="fill: #f9bebb; fill-opacity: 0.7; stroke: #000000; stroke-width: 0.5; stroke-linejoin: miter"/>
   </g>
   <g id="patch_53">
    <path d="M 94.414091 372.3 
L 105.959727 372.3 
L 105.959727 371.870036 
L 94.414091 371.870036 
z
" clip-path="url(#pc4812d18ff)" style="fill: #89c9c8; fill-opacity: 0.7; stroke: #000000; stroke-width: 0.5; stroke-linejoin: miter"/>
   </g>
   <g id="patch_54">
    <path d="M 105.959727 372.3 
L 117.505364 372.3 
L 117.505364 372.3 
L 105.959727 372.3 
z
" clip-path="url(#pc4812d18ff)" style="fill: #89c9c8; fill-opacity: 0.7; stroke: #000000; stroke-width: 0.5; stroke-linejoin: miter"/>
   </g>
   <g id="patch_55">
    <path d="M 117.505364 372.3 
L 129.051 372.3 
L 129.051 371.440073 
L 117.505364 371.440073 
z
" clip-path="url(#pc4812d18ff)" style="fill: #89c9c8; fill-opacity: 0.7; stroke: #000000; stroke-width: 0.5; stroke-linejoin: miter"/>
   </g>
   <g id="patch_56">
    <path d="M 129.051 372.3 
L 140.596636 372.3 
L 140.596636 371.010109 
L 129.051 371.010109 
z
" clip-path="url(#pc4812d18ff)" style="fill: #89c9c8; fill-opacity: 0.7; stroke: #000000; stroke-width: 0.5; stroke-linejoin: miter"/>
   </g>
   <g id="patch_57">
    <path d="M 140.596636 372.3 
L 152.142273 372.3 
L 152.142273 370.580145 
L 140.596636 370.580145 
z
" clip-path="url(#pc4812d18ff)" style="fill: #89c9c8; fill-opacity: 0.7; stroke: #000000; stroke-width: 0.5; stroke-linejoin: miter"/>
   </g>
   <g id="patch_58">
    <path d="M 152.142273 372.3 
L 163.687909 372.3 
L 163.687909 371.010109 
L 152.142273 371.010109 
z
" clip-path="url(#pc4812d18ff)" style="fill: #89c9c8; fill-opacity: 0.7; stroke: #000000; stroke-width: 0.5; stroke-linejoin: miter"/>
   </g>
   <g id="patch_59">
    <path d="M 163.687909 372.3 
L 175.233545 372.3 
L 175.233545 371.010109 
L 163.687909 371.010109 
z
" clip-path="url(#pc4812d18ff)" style="fill: #89c9c8; fill-opacity: 0.7; stroke: #000000; stroke-width: 0.5; stroke-linejoin: miter"/>
   </g>
   <g id="patch_60">
    <path d="M 175.233545 372.3 
L 186.779182 372.3 
L 186.779182 355.961379 
L 175.233545 355.961379 
z
" clip-path="url(#pc4812d18ff)" style="fill: #89c9c8; fill-opacity: 0.7; stroke: #000000; stroke-width: 0.5; stroke-linejoin: miter"/>
   </g>
   <g id="patch_61">
    <path d="M 186.779182 372.3 
L 198.324818 372.3 
L 198.324818 365.850544 
L 186.779182 365.850544 
z
" clip-path="url(#pc4812d18ff)" style="fill: #89c9c8; fill-opacity: 0.7; stroke: #000000; stroke-width: 0.5; stroke-linejoin: miter"/>
   </g>
   <g id="patch_62">
    <path d="M 198.324818 372.3 
L 209.870455 372.3 
L 209.870455 364.130689 
L 198.324818 364.130689 
z
" clip-path="url(#pc4812d18ff)" style="fill: #89c9c8; fill-opacity: 0.7; stroke: #000000; stroke-width: 0.5; stroke-linejoin: miter"/>
   </g>
   <g id="patch_63">
    <path d="M 209.870455 372.3 
L 221.416091 372.3 
L 221.416091 361.980871 
L 209.870455 361.980871 
z
" clip-path="url(#pc4812d18ff)" style="fill: #89c9c8; fill-opacity: 0.7; stroke: #000000; stroke-width: 0.5; stroke-linejoin: miter"/>
   </g>
   <g id="patch_64">
    <path d="M 221.416091 372.3 
L 232.961727 372.3 
L 232.961727 351.661741 
L 221.416091 351.661741 
z
" clip-path="url(#pc4812d18ff)" style="fill: #89c9c8; fill-opacity: 0.7; stroke: #000000; stroke-width: 0.5; stroke-linejoin: miter"/>
   </g>
   <g id="patch_65">
    <path d="M 232.961727 372.3 
L 244.507364 372.3 
L 244.507364 343.062467 
L 232.961727 343.062467 
z
" clip-path="url(#pc4812d18ff)" style="fill: #89c9c8; fill-opacity: 0.7; stroke: #000000; stroke-width: 0.5; stroke-linejoin: miter"/>
   </g>
   <g id="patch_66">
    <path d="M 244.507364 372.3 
L 256.053 372.3 
L 256.053 335.32312 
L 244.507364 335.32312 
z
" clip-path="url(#pc4812d18ff)" style="fill: #89c9c8; fill-opacity: 0.7; stroke: #000000; stroke-width: 0.5; stroke-linejoin: miter"/>
   </g>
   <g id="patch_67">
    <path d="M 256.053 372.3 
L 267.598636 372.3 
L 267.598636 318.554535 
L 256.053 318.554535 
z
" clip-path="url(#pc4812d18ff)" style="fill: #89c9c8; fill-opacity: 0.7; stroke: #000000; stroke-width: 0.5; stroke-linejoin: miter"/>
   </g>
   <g id="patch_68">
    <path d="M 267.598636 372.3 
L 279.144273 372.3 
L 279.144273 278.997872 
L 267.598636 278.997872 
z
" clip-path="url(#pc4812d18ff)" style="fill: #89c9c8; fill-opacity: 0.7; stroke: #000000; stroke-width: 0.5; stroke-linejoin: miter"/>
   </g>
   <g id="patch_69">
    <path d="M 279.144273 372.3 
L 290.689909 372.3 
L 290.689909 262.659251 
L 279.144273 262.659251 
z
" clip-path="url(#pc4812d18ff)" style="fill: #89c9c8; fill-opacity: 0.7; stroke: #000000; stroke-width: 0.5; stroke-linejoin: miter"/>
   </g>
   <g id="patch_70">
    <path d="M 290.689909 372.3 
L 302.235545 372.3 
L 302.235545 238.151318 
L 290.689909 238.151318 
z
" clip-path="url(#pc4812d18ff)" style="fill: #89c9c8; fill-opacity: 0.7; stroke: #000000; stroke-width: 0.5; stroke-linejoin: miter"/>
   </g>
   <g id="patch_71">
    <path d="M 302.235545 372.3 
L 313.781182 372.3 
L 313.781182 191.715236 
L 302.235545 191.715236 
z
" clip-path="url(#pc4812d18ff)" style="fill: #89c9c8; fill-opacity: 0.7; stroke: #000000; stroke-width: 0.5; stroke-linejoin: miter"/>
   </g>
   <g id="patch_72">
    <path d="M 313.781182 372.3 
L 325.326818 372.3 
L 325.326818 159.467957 
L 313.781182 159.467957 
z
" clip-path="url(#pc4812d18ff)" style="fill: #89c9c8; fill-opacity: 0.7; stroke: #000000; stroke-width: 0.5; stroke-linejoin: miter"/>
   </g>
   <g id="patch_73">
    <path d="M 325.326818 372.3 
L 336.872455 372.3 
L 336.872455 173.226796 
L 325.326818 173.226796 
z
" clip-path="url(#pc4812d18ff)" style="fill: #89c9c8; fill-opacity: 0.7; stroke: #000000; stroke-width: 0.5; stroke-linejoin: miter"/>
   </g>
   <g id="patch_74">
    <path d="M 336.872455 372.3 
L 348.418091 372.3 
L 348.418091 183.545926 
L 336.872455 183.545926 
z
" clip-path="url(#pc4812d18ff)" style="fill: #89c9c8; fill-opacity: 0.7; stroke: #000000; stroke-width: 0.5; stroke-linejoin: miter"/>
   </g>
   <g id="patch_75">
    <path d="M 348.418091 372.3 
L 359.963727 372.3 
L 359.963727 188.70549 
L 348.418091 188.70549 
z
" clip-path="url(#pc4812d18ff)" style="fill: #89c9c8; fill-opacity: 0.7; stroke: #000000; stroke-width: 0.5; stroke-linejoin: miter"/>
   </g>
   <g id="patch_76">
    <path d="M 359.963727 372.3 
L 371.509364 372.3 
L 371.509364 196.874801 
L 359.963727 196.874801 
z
" clip-path="url(#pc4812d18ff)" style="fill: #89c9c8; fill-opacity: 0.7; stroke: #000000; stroke-width: 0.5; stroke-linejoin: miter"/>
   </g>
   <g id="patch_77">
    <path d="M 371.509364 372.3 
L 383.055 372.3 
L 383.055 163.767594 
L 371.509364 163.767594 
z
" clip-path="url(#pc4812d18ff)" style="fill: #89c9c8; fill-opacity: 0.7; stroke: #000000; stroke-width: 0.5; stroke-linejoin: miter"/>
   </g>
   <g id="patch_78">
    <path d="M 383.055 372.3 
L 394.600636 372.3 
L 394.600636 159.897921 
L 383.055 159.897921 
z
" clip-path="url(#pc4812d18ff)" style="fill: #89c9c8; fill-opacity: 0.7; stroke: #000000; stroke-width: 0.5; stroke-linejoin: miter"/>
   </g>
   <g id="patch_79">
    <path d="M 394.600636 372.3 
L 406.146273 372.3 
L 406.146273 176.236542 
L 394.600636 176.236542 
z
" clip-path="url(#pc4812d18ff)" style="fill: #89c9c8; fill-opacity: 0.7; stroke: #000000; stroke-width: 0.5; stroke-linejoin: miter"/>
   </g>
   <g id="patch_80">
    <path d="M 406.146273 372.3 
L 417.691909 372.3 
L 417.691909 132.380243 
L 406.146273 132.380243 
z
" clip-path="url(#pc4812d18ff)" style="fill: #89c9c8; fill-opacity: 0.7; stroke: #000000; stroke-width: 0.5; stroke-linejoin: miter"/>
   </g>
   <g id="patch_81">
    <path d="M 417.691909 372.3 
L 429.237545 372.3 
L 429.237545 109.592165 
L 417.691909 109.592165 
z
" clip-path="url(#pc4812d18ff)" style="fill: #89c9c8; fill-opacity: 0.7; stroke: #000000; stroke-width: 0.5; stroke-linejoin: miter"/>
   </g>
   <g id="patch_82">
    <path d="M 429.237545 372.3 
L 440.783182 372.3 
L 440.783182 62.726119 
L 429.237545 62.726119 
z
" clip-path="url(#pc4812d18ff)" style="fill: #89c9c8; fill-opacity: 0.7; stroke: #000000; stroke-width: 0.5; stroke-linejoin: miter"/>
   </g>
   <g id="patch_83">
    <path d="M 440.783182 372.3 
L 452.328818 372.3 
L 452.328818 36.928296 
L 440.783182 36.928296 
z
" clip-path="url(#pc4812d18ff)" style="fill: #89c9c8; fill-opacity: 0.7; stroke: #000000; stroke-width: 0.5; stroke-linejoin: miter"/>
   </g>
   <g id="patch_84">
    <path d="M 452.328818 372.3 
L 463.874455 372.3 
L 463.874455 58.856446 
L 452.328818 58.856446 
z
" clip-path="url(#pc4812d18ff)" style="fill: #89c9c8; fill-opacity: 0.7; stroke: #000000; stroke-width: 0.5; stroke-linejoin: miter"/>
   </g>
   <g id="patch_85">
    <path d="M 463.874455 372.3 
L 475.420091 372.3 
L 475.420091 48.96728 
L 463.874455 48.96728 
z
" clip-path="url(#pc4812d18ff)" style="fill: #89c9c8; fill-opacity: 0.7; stroke: #000000; stroke-width: 0.5; stroke-linejoin: miter"/>
   </g>
   <g id="patch_86">
    <path d="M 475.420091 372.3 
L 486.965727 372.3 
L 486.965727 54.986772 
L 475.420091 54.986772 
z
" clip-path="url(#pc4812d18ff)" style="fill: #89c9c8; fill-opacity: 0.7; stroke: #000000; stroke-width: 0.5; stroke-linejoin: miter"/>
   </g>
   <g id="patch_87">
    <path d="M 486.965727 372.3 
L 498.511364 372.3 
L 498.511364 53.696881 
L 486.965727 53.696881 
z
" clip-path="url(#pc4812d18ff)" style="fill: #89c9c8; fill-opacity: 0.7; stroke: #000000; stroke-width: 0.5; stroke-linejoin: miter"/>
   </g>
   <g id="patch_88">
    <path d="M 498.511364 372.3 
L 510.057 372.3 
L 510.057 111.741984 
L 498.511364 111.741984 
z
" clip-path="url(#pc4812d18ff)" style="fill: #89c9c8; fill-opacity: 0.7; stroke: #000000; stroke-width: 0.5; stroke-linejoin: miter"/>
   </g>
   <g id="patch_89">
    <path d="M 510.057 372.3 
L 521.602636 372.3 
L 521.602636 158.60803 
L 510.057 158.60803 
z
" clip-path="url(#pc4812d18ff)" style="fill: #89c9c8; fill-opacity: 0.7; stroke: #000000; stroke-width: 0.5; stroke-linejoin: miter"/>
   </g>
   <g id="patch_90">
    <path d="M 521.602636 372.3 
L 533.148273 372.3 
L 533.148273 216.223169 
L 521.602636 216.223169 
z
" clip-path="url(#pc4812d18ff)" style="fill: #89c9c8; fill-opacity: 0.7; stroke: #000000; stroke-width: 0.5; stroke-linejoin: miter"/>
   </g>
   <g id="patch_91">
    <path d="M 533.148273 372.3 
L 544.693909 372.3 
L 544.693909 260.079468 
L 533.148273 260.079468 
z
" clip-path="url(#pc4812d18ff)" style="fill: #89c9c8; fill-opacity: 0.7; stroke: #000000; stroke-width: 0.5; stroke-linejoin: miter"/>
   </g>
   <g id="patch_92">
    <path d="M 544.693909 372.3 
L 556.239545 372.3 
L 556.239545 287.167183 
L 544.693909 287.167183 
z
" clip-path="url(#pc4812d18ff)" style="fill: #89c9c8; fill-opacity: 0.7; stroke: #000000; stroke-width: 0.5; stroke-linejoin: miter"/>
   </g>
   <g id="patch_93">
    <path d="M 556.239545 372.3 
L 567.785182 372.3 
L 567.785182 312.105079 
L 556.239545 312.105079 
z
" clip-path="url(#pc4812d18ff)" style="fill: #89c9c8; fill-opacity: 0.7; stroke: #000000; stroke-width: 0.5; stroke-linejoin: miter"/>
   </g>
   <g id="patch_94">
    <path d="M 567.785182 372.3 
L 579.330818 372.3 
L 579.330818 328.4437 
L 567.785182 328.4437 
z
" clip-path="url(#pc4812d18ff)" style="fill: #89c9c8; fill-opacity: 0.7; stroke: #000000; stroke-width: 0.5; stroke-linejoin: miter"/>
   </g>
   <g id="patch_95">
    <path d="M 579.330818 372.3 
L 590.876455 372.3 
L 590.876455 337.472938 
L 579.330818 337.472938 
z
" clip-path="url(#pc4812d18ff)" style="fill: #89c9c8; fill-opacity: 0.7; stroke: #000000; stroke-width: 0.5; stroke-linejoin: miter"/>
   </g>
   <g id="patch_96">
    <path d="M 590.876455 372.3 
L 602.422091 372.3 
L 602.422091 349.081959 
L 590.876455 349.081959 
z
" clip-path="url(#pc4812d18ff)" style="fill: #89c9c8; fill-opacity: 0.7; stroke: #000000; stroke-width: 0.5; stroke-linejoin: miter"/>
   </g>
   <g id="patch_97">
    <path d="M 602.422091 372.3 
L 613.967727 372.3 
L 613.967727 348.222032 
L 602.422091 348.222032 
z
" clip-path="url(#pc4812d18ff)" style="fill: #89c9c8; fill-opacity: 0.7; stroke: #000000; stroke-width: 0.5; stroke-linejoin: miter"/>
   </g>
   <g id="patch_98">
    <path d="M 613.967727 372.3 
L 625.513364 372.3 
L 625.513364 357.25127 
L 613.967727 357.25127 
z
" clip-path="url(#pc4812d18ff)" style="fill: #89c9c8; fill-opacity: 0.7; stroke: #000000; stroke-width: 0.5; stroke-linejoin: miter"/>
   </g>
   <g id="patch_99">
    <path d="M 625.513364 372.3 
L 637.059 372.3 
L 637.059 362.410834 
L 625.513364 362.410834 
z
" clip-path="url(#pc4812d18ff)" style="fill: #89c9c8; fill-opacity: 0.7; stroke: #000000; stroke-width: 0.5; stroke-linejoin: miter"/>
   </g>
   <g id="patch_100">
    <path d="M 637.059 372.3 
L 648.604636 372.3 
L 648.604636 361.120943 
L 637.059 361.120943 
z
" clip-path="url(#pc4812d18ff)" style="fill: #89c9c8; fill-opacity: 0.7; stroke: #000000; stroke-width: 0.5; stroke-linejoin: miter"/>
   </g>
   <g id="patch_101">
    <path d="M 648.604636 372.3 
L 660.150273 372.3 
L 660.150273 357.681233 
L 648.604636 357.681233 
z
" clip-path="url(#pc4812d18ff)" style="fill: #89c9c8; fill-opacity: 0.7; stroke: #000000; stroke-width: 0.5; stroke-linejoin: miter"/>
   </g>
   <g id="patch_102">
    <path d="M 660.150273 372.3 
L 671.695909 372.3 
L 671.695909 337.472938 
L 660.150273 337.472938 
z
" clip-path="url(#pc4812d18ff)" style="fill: #89c9c8; fill-opacity: 0.7; stroke: #000000; stroke-width: 0.5; stroke-linejoin: miter"/>
   </g>
   <g id="line2d_1">
    <path d="M 124.794417 371.129553 
L 130.283946 370.567469 
L 135.773475 369.820845 
L 141.263004 368.841712 
L 146.752532 367.561211 
L 149.497297 366.778153 
L 152.242061 365.878958 
L 154.986826 364.844027 
L 157.73159 363.65016 
L 160.476355 362.270238 
L 163.221119 360.673016 
L 165.965883 358.823067 
L 168.710648 356.680904 
L 171.455412 354.203353 
L 174.200177 351.344243 
L 176.944941 348.055571 
L 179.689706 344.289309 
L 182.43447 340.000016 
L 185.179234 335.14839 
L 187.923999 329.70569 
L 190.668763 323.65878 
L 193.413528 317.015262 
L 196.158292 309.807932 
L 198.903057 302.097661 
L 204.392586 285.551823 
L 212.626879 259.898704 
L 215.371643 251.701615 
L 218.116408 243.894197 
L 220.861172 236.568421 
L 223.605937 229.785665 
L 226.350701 223.576794 
L 229.095465 217.945729 
L 231.84023 212.875504 
L 234.584994 208.335455 
L 237.329759 204.288111 
L 240.074523 200.694595 
L 242.819288 197.517768 
L 245.564052 194.722956 
L 248.308816 192.2766 
L 251.053581 190.143565 
L 253.798345 188.284069 
L 256.54311 186.651117 
L 262.032639 183.834717 
L 267.522168 181.168008 
L 270.266932 179.715883 
L 273.011696 178.102283 
L 275.756461 176.282381 
L 278.501225 174.231023 
L 281.24599 171.946276 
L 283.990754 169.450878 
L 289.480283 164.033386 
L 294.969812 158.549588 
L 297.714576 155.992797 
L 300.459341 153.659641 
L 303.204105 151.605288 
L 305.94887 149.86366 
L 308.693634 148.44652 
L 311.438398 147.345472 
L 314.183163 146.536258 
L 316.927927 145.984351 
L 319.672692 145.650705 
L 322.417456 145.496646 
L 325.162221 145.487198 
L 330.65175 145.787753 
L 336.141278 146.362352 
L 344.375572 147.344473 
L 349.865101 147.727442 
L 352.609865 147.718966 
L 355.354629 147.515941 
L 358.099394 147.070043 
L 360.844158 146.33254 
L 363.588923 145.255641 
L 366.333687 143.794121 
L 369.078452 141.907478 
L 371.823216 139.562858 
L 374.56798 136.738828 
L 377.312745 133.429903 
L 380.057509 129.651453 
L 382.802274 125.444392 
L 385.547038 120.87895 
L 396.526096 101.515669 
L 399.27086 97.250636 
L 402.015625 93.612386 
L 404.760389 90.801133 
L 407.505154 89.001317 
L 410.249918 88.371612 
L 412.994683 89.036539 
L 415.739447 91.0803 
L 418.484211 94.543253 
L 421.228976 99.421146 
L 423.97374 105.666941 
L 426.718505 113.194807 
L 429.463269 121.885715 
L 432.208034 131.593925 
L 434.952798 142.153789 
L 437.697562 153.386335 
L 443.187091 177.122883 
L 451.421385 213.16076 
L 454.166149 224.621145 
L 456.910914 235.572602 
L 459.655678 245.907029 
L 462.400442 255.540921 
L 465.145207 264.416655 
L 467.889971 272.50258 
L 470.634736 279.791855 
L 473.3795 286.30011 
L 476.124265 292.062164 
L 478.869029 297.128127 
L 481.613793 301.55927 
L 484.358558 305.423978 
L 487.103322 308.794073 
L 489.848087 311.741587 
L 492.592851 314.336009 
L 495.337616 316.641906 
L 498.08238 318.716801 
L 500.827145 320.609244 
L 506.316673 323.986226 
L 511.806202 326.927734 
L 514.550967 328.229249 
L 517.295731 329.393721 
L 520.040496 330.394784 
L 522.78526 331.204366 
L 525.530024 331.797251 
L 528.274789 332.155483 
L 531.019553 332.272042 
L 533.764318 332.153286 
L 536.509082 331.819773 
L 539.253847 331.30531 
L 544.743375 329.91767 
L 552.977669 327.699104 
L 558.467198 326.590999 
L 563.956727 325.92487 
L 569.446255 325.659963 
L 574.935784 325.728078 
L 580.425313 326.137928 
L 583.170078 326.501768 
L 585.914842 326.994763 
L 588.659606 327.632036 
L 591.404371 328.421811 
L 594.149135 329.361798 
L 599.638664 331.61765 
L 607.872957 335.322341 
L 610.617722 336.412651 
L 613.362486 337.324385 
L 616.107251 337.99791 
L 618.852015 338.381058 
L 621.59678 338.431428 
L 624.341544 338.117845 
L 627.086309 337.421243 
L 629.831073 336.335337 
L 632.575837 334.867612 
L 635.320602 333.041005 
L 638.065366 330.896478 
L 640.810131 328.49627 
L 649.044424 320.761935 
L 651.789188 318.46736 
L 654.533953 316.594041 
L 657.278717 315.317508 
L 660.023482 314.796816 
L 662.768246 315.156457 
L 665.513011 316.469701 
L 668.257775 318.746361 
L 671.002539 321.927471 
L 671.002539 321.927471 
" clip-path="url(#pc4812d18ff)" style="fill: none; stroke: #f9bebb; stroke-width: 2.25; stroke-linecap: round"/>
   </g>
   <g id="line2d_2">
    <path d="M 94.414091 372.118691 
L 108.918659 371.976922 
L 120.522314 371.61176 
L 149.53145 370.346542 
L 152.432364 370.037232 
L 155.333278 369.61531 
L 158.234191 369.070731 
L 164.036019 367.664514 
L 169.837846 366.113896 
L 172.73876 365.430759 
L 175.639673 364.878189 
L 178.540587 364.481794 
L 181.441501 364.238516 
L 187.243328 364.071769 
L 193.045155 363.971431 
L 195.946069 363.814302 
L 198.846983 363.532712 
L 201.747896 363.098126 
L 204.64881 362.488421 
L 207.549724 361.686692 
L 210.450637 360.682127 
L 213.351551 359.472302 
L 216.252465 358.065215 
L 219.153378 356.479214 
L 224.955206 352.873355 
L 230.757033 348.823596 
L 233.657947 346.632086 
L 236.55886 344.291636 
L 239.459774 341.752594 
L 242.360688 338.95583 
L 245.261601 335.84132 
L 248.162515 332.35661 
L 251.063429 328.463666 
L 253.964342 324.143323 
L 256.865256 319.397258 
L 259.766169 314.247695 
L 262.667083 308.735034 
L 268.46891 296.843113 
L 274.270738 284.177552 
L 280.072565 271.002928 
L 285.874392 257.217947 
L 291.67622 242.550426 
L 306.180788 204.315542 
L 309.081702 197.585161 
L 311.982615 191.600101 
L 314.883529 186.507891 
L 317.784443 182.405882 
L 320.685356 179.33324 
L 323.58627 177.269405 
L 326.487184 176.139086 
L 329.388097 175.823054 
L 332.289011 176.172953 
L 335.189925 177.027314 
L 338.090838 178.225588 
L 346.793579 182.451859 
L 349.694493 183.657641 
L 352.595407 184.577978 
L 355.49632 185.113982 
L 358.397234 185.180955 
L 361.298148 184.719312 
L 364.199061 183.707175 
L 367.099975 182.170258 
L 370.000889 180.184688 
L 372.901802 177.869884 
L 381.604543 170.379608 
L 384.505457 168.071865 
L 393.208198 161.639279 
L 396.109111 159.206774 
L 399.010025 156.314558 
L 401.910939 152.778441 
L 404.811852 148.453228 
L 407.712766 143.247689 
L 410.61368 137.131274 
L 413.514593 130.136271 
L 416.415507 122.359692 
L 419.316421 113.966751 
L 428.019162 87.77041 
L 430.920075 79.843149 
L 433.820989 72.898874 
L 436.721903 67.188399 
L 439.622816 62.831654 
L 442.52373 59.795761 
L 445.424644 57.904488 
L 448.325557 56.878561 
L 451.226471 56.396657 
L 459.929212 55.640214 
L 468.631953 54.392626 
L 471.532867 54.25356 
L 474.43378 54.507196 
L 477.334694 55.315411 
L 480.235608 56.845011 
L 483.136521 59.269041 
L 486.037435 62.76046 
L 488.938349 67.474947 
L 491.839262 73.525212 
L 494.740176 80.954028 
L 497.64109 89.71539 
L 500.542003 99.671629 
L 503.442917 110.609498 
L 506.343831 122.271849 
L 512.145658 146.748674 
L 520.848399 183.590688 
L 526.650226 207.07703 
L 532.452053 229.094738 
L 535.352967 239.382485 
L 538.253881 249.109691 
L 541.154794 258.236951 
L 544.055708 266.745539 
L 546.956622 274.636411 
L 549.857535 281.927044 
L 552.758449 288.647947 
L 555.659363 294.83964 
L 558.560276 300.549809 
L 561.46119 305.829799 
L 564.362104 310.729977 
L 567.263017 315.294424 
L 570.163931 319.556206 
L 573.064845 323.534736 
L 575.965758 327.23614 
L 578.866672 330.656609 
L 581.767586 333.787782 
L 584.668499 336.622781 
L 587.569413 339.161601 
L 590.470327 341.414927 
L 593.37124 343.405843 
L 596.272154 345.169141 
L 599.173068 346.748211 
L 604.974895 349.537834 
L 613.677636 353.294142 
L 619.479463 355.576271 
L 622.380377 356.592173 
L 625.281291 357.485483 
L 628.182204 358.228698 
L 631.083118 358.799703 
L 633.984032 359.18368 
L 636.884945 359.374016 
L 639.785859 359.372539 
L 642.686772 359.189621 
L 645.587686 358.844871 
L 651.389513 357.807107 
L 657.191341 356.693494 
L 660.092254 356.319021 
L 662.993168 356.199104 
L 665.894082 356.423259 
L 668.794995 357.050424 
L 671.695909 358.092505 
L 671.695909 358.092505 
" clip-path="url(#pc4812d18ff)" style="fill: none; stroke: #89c9c8; stroke-width: 2.25; stroke-linecap: round"/>
   </g>
   <g id="patch_103">
    <path d="M 65.55 372.3 
L 65.55 20.159711 
" style="fill: none; stroke: #cccccc; stroke-width: 1.875; stroke-linejoin: miter; stroke-linecap: square"/>
   </g>
   <g id="patch_104">
    <path d="M 65.55 372.3 
L 700.56 372.3 
" style="fill: none; stroke: #cccccc; stroke-width: 1.875; stroke-linejoin: miter; stroke-linecap: square"/>
   </g>
   <g id="legend_1">
    <g id="patch_105">
     <path d="M 560.799375 39.549086 
L 584.799375 39.549086 
L 584.799375 31.149086 
L 560.799375 31.149086 
z
" style="fill: #f9bebb; fill-opacity: 0.7; stroke: #000000; stroke-width: 0.5; stroke-linejoin: miter"/>
    </g>
    <g id="text_16">
     <text style="fill: #262626; font: 12px 'Arial'; text-anchor: start" x="594.399375" y="39.549086" transform="rotate(-0 594.399375 39.549086)">Morphology</text>
    </g>
    <g id="patch_106">
     <path d="M 560.799375 56.664086 
L 584.799375 56.664086 
L 584.799375 48.264086 
L 560.799375 48.264086 
z
" style="fill: #89c9c8; fill-opacity: 0.7; stroke: #000000; stroke-width: 0.5; stroke-linejoin: miter"/>
    </g>
    <g id="text_17">
     <text style="fill: #262626; font: 12px 'Arial'; text-anchor: start" x="594.399375" y="56.664086" transform="rotate(-0 594.399375 56.664086)">Microenvironment</text>
    </g>
   </g>
  </g>
 </g>
 <defs>
  <clipPath id="pc4812d18ff">
   <rect x="65.55" y="20.159711" width="635.01" height="352.140289"/>
  </clipPath>
 </defs>
</svg>
